# xmcd
#
# Track frame offsets:
#	150
#	13125
#	27075
#	42750
#	60075
#	64725
#	79575
#	92662
#	106725
#	118650
#	124575
#	143850
#	157875
#	168300
#
# Disc length: 2335 seconds
#
# Revision: 0
# Processed by: cddbd v1.5.2PL0 Copyright (c) Steve Scherf et al.
# Submitted via: EasyCDDAExtractor 16.0.6.1
#
DISCID=a1091d0e
DTITLE=Συλλογικός δίσκος - Εκείνο το καλοκαίρι
DYEAR=1971
DGENRE=Ελαφρολαϊκή
TTITLE0=Μάνου Αφροδίτη - Ένα καλοκαίρι [Γ. Σπανός-Αλ. Αλεξόπουλος]
TTITLE1=Άνευ ερμηνευτού - Τετ α τετ [Γ. Σπανός]
TTITLE2=Φέρτης Γιάννης-Μάνου Αφροδίτη - Μαζί σου στην ακρογιαλιά [Γ. Σπανός-Αλ
TTITLE2=Αλεξόπουλος]
TTITLE3=Άνευ ερμηνευτού - Ένα καλοκαίρι [Γ. Σπανός]
TTITLE4=Άνευ ερμηνευτού - Ηλιοβασίλεμα [Γ. Σπανός]
TTITLE5=Άνευ ερμηνευτού - Στα κύματα [Γ. Σπανός]
TTITLE6=Άνευ ερμηνευτού - Τίτλοι [Γ. Σπανός]
TTITLE7=Φέρτης Γιάννης-Μάνου Αφροδίτη - Σαν με κοιτάς [Γ. Σπανός-Αλ. Αλεξόπουλ
TTITLE7=ος]
TTITLE8=Μάνου Αφροδίτη - Ανάμνηση [Γ. Σπανός]
TTITLE9=Άνευ ερμηνευτού - Τελευταίο καλοκαίρι [Γ. Σπανός]
TTITLE10=Άνευ ερμηνευτού - Ακρογιαλιά [Γ. Σπανός]
TTITLE11=Άνευ ερμηνευτού - Μοναξιά [Γ. Σπανός]
TTITLE12=Άνευ ερμηνευτού - Σαν με κοιτάς [Γ. Σπανός]
TTITLE13=Μάνου Αφροδίτη - Φινάλε [Γ. Σπανός-Αλ. Αλεξόπουλος]
EXTD=
EXTT0=
EXTT1=
EXTT2=
EXTT3=
EXTT4=
EXTT5=
EXTT6=
EXTT7=
EXTT8=
EXTT9=
EXTT10=
EXTT11=
EXTT12=
EXTT13=
PLAYORDER=
